<svg xmlns="http://www.w3.org/2000/svg" xmlns:xlink="http://www.w3.org/1999/xlink" width="400" zoomAndPan="magnify" viewBox="0 0 300 187.499995" height="250" preserveAspectRatio="xMidYMid meet" version="1.0"><defs><g/></defs><g fill="#ffffff" fill-opacity="1"><g transform="translate(45.950529, 76.846623)"><g><path d="M 0.8125 -26.796875 L 1.21875 0 L 8.890625 -0.25 L 9.171875 -21.015625 L 18.75 -20.734375 L 18.5 0 L 23.765625 -0.25 L 23.234375 -20.328125 L 34.1875 -19.640625 L 34.1875 -0.25 L 42.015625 0.25 L 41.296875 -25.453125 Z M 0.8125 -26.796875 "/></g></g></g><g fill="#ffffff" fill-opacity="1"><g transform="translate(91.605365, 76.846623)"><g><path d="M 9.125 -15.765625 L 9.125 -20.328125 L 28.84375 -20.125 L 28.84375 -27.234375 L 0.8125 -27.640625 L 1.09375 -0.078125 L 28.078125 0.078125 L 27.84375 -6.59375 L 9.328125 -7.078125 L 9.421875 -11.953125 L 24.609375 -11.71875 L 24.84375 -15.46875 Z M 9.125 -15.765625 "/></g></g></g><g fill="#ffffff" fill-opacity="1"><g transform="translate(124.088983, 76.846623)"><g><path d="M 27.515625 -18.984375 L 27.921875 -26.875 L 0.8125 -27.1875 L 0.8125 -20.203125 L 10.390625 -19.84375 L 10.875 0.15625 L 18.78125 -0.078125 L 18.1875 -19.5625 Z M 27.515625 -18.984375 "/></g></g></g><g fill="#ffffff" fill-opacity="1"><g transform="translate(155.643337, 76.846623)"><g><path d="M 9.125 -15.765625 L 9.125 -20.328125 L 28.84375 -20.125 L 28.84375 -27.234375 L 0.8125 -27.640625 L 1.09375 -0.078125 L 28.078125 0.078125 L 27.84375 -6.59375 L 9.328125 -7.078125 L 9.421875 -11.953125 L 24.609375 -11.71875 L 24.84375 -15.46875 Z M 9.125 -15.765625 "/></g></g></g><g fill="#ffffff" fill-opacity="1"><g transform="translate(188.12695, 76.846623)"><g><path d="M 28.9375 -27.640625 L 0.8125 -25.90625 L 1.296875 -0.203125 L 30.0625 -0.046875 Z M 9.09375 -7.390625 L 8.40625 -20.96875 L 22.109375 -21.578125 L 22.296875 -7.390625 Z M 9.09375 -7.390625 "/></g></g></g><g fill="#ffffff" fill-opacity="1"><g transform="translate(221.822649, 76.846623)"><g><path d="M 0.8125 -27.84375 L 1.609375 0.203125 L 8.6875 0 L 8.890625 -12.765625 L 12.484375 -12.6875 L 22.296875 0.359375 L 31.390625 0.203125 L 21.296875 -12.84375 L 27.640625 -12.96875 L 28.078125 -28.328125 Z M 17.375 -17.5 L 8.53125 -17.453125 L 8.53125 -22.265625 L 17.21875 -22.34375 Z M 17.375 -17.5 "/></g></g></g><g fill="#665eff" fill-opacity="1"><g transform="translate(21.333364, 139.52231)"><g><path d="M 1.21875 -39.703125 L 2.546875 -13.8125 L 29.640625 -14.96875 L 29.703125 -9.03125 L 2.90625 -8.125 L 3.453125 0.296875 L 40.609375 -0.421875 L 39.28125 -25.28125 L 13.03125 -24 L 12.609375 -29.703125 L 39.21875 -31.15625 L 38.25 -42.0625 Z M 1.21875 -39.703125 "/></g></g></g><g fill="#665eff" fill-opacity="1"><g transform="translate(67.392278, 139.52231)"><g><path d="M 1.21875 -40.1875 L 1.8125 0 L 13.328125 -0.359375 L 13.765625 -31.515625 L 28.125 -31.09375 L 27.765625 0 L 35.640625 -0.359375 L 34.84375 -30.484375 L 51.28125 -29.453125 L 51.28125 -0.359375 L 63.03125 0.359375 L 61.9375 -38.1875 Z M 1.21875 -40.1875 "/></g></g></g><g fill="#665eff" fill-opacity="1"><g transform="translate(135.874601, 139.52231)"><g><path d="M 43.28125 -0.125 L 43.515625 -41.765625 L 2.734375 -43.09375 L 1.21875 -0.125 L 14.359375 0 L 15.03125 -18.671875 L 31.703125 -18.296875 L 31.8125 -0.0625 Z M 31.765625 -34.359375 L 32 -26.546875 L 14.546875 -27.15625 L 14.734375 -35.03125 Z M 31.765625 -34.359375 "/></g></g></g><g fill="#665eff" fill-opacity="1"><g transform="translate(184.842481, 139.52231)"><g><path d="M 1.21875 -39.703125 L 2.546875 -13.8125 L 29.640625 -14.96875 L 29.703125 -9.03125 L 2.90625 -8.125 L 3.453125 0.296875 L 40.609375 -0.421875 L 39.28125 -25.28125 L 13.03125 -24 L 12.609375 -29.703125 L 39.21875 -31.15625 L 38.25 -42.0625 Z M 1.21875 -39.703125 "/></g></g></g><g fill="#665eff" fill-opacity="1"><g transform="translate(230.901385, 139.52231)"><g><path d="M 13.09375 -24 L 12.484375 -40.421875 L 1.21875 -40.125 L 1.21875 0.1875 L 14.78125 0.1875 L 14.78125 -17.578125 L 32.609375 -17.578125 L 32.84375 -0.421875 L 46.546875 -0.1875 L 46.3125 -40.421875 L 32.609375 -40.125 L 32.609375 -23.640625 Z M 13.09375 -24 "/></g></g></g></svg>